<?xml version="1.0" standalone="no"?>
<!DOCTYPE svg PUBLIC "-//W3C//DTD SVG 20010904//EN"
 "http://www.w3.org/TR/2001/REC-SVG-20010904/DTD/svg10.dtd">
<svg version="1.0" xmlns="http://www.w3.org/2000/svg"
 width="1536.000000pt" height="1536.000000pt" viewBox="0 0 1536.000000 1536.000000"
 preserveAspectRatio="xMidYMid meet">

<g transform="translate(0.000000,1536.000000) scale(0.100000,-0.100000)"
fill="#000000" stroke="none">
<path d="M9445 14184 c-432 -44 -752 -124 -1150 -286 -1183 -483 -2067 -1311
-2681 -2513 -131 -255 -197 -404 -288 -646 -422 -1128 -506 -2469 -245 -3912
76 -419 188 -861 326 -1282 102 -313 257 -723 359 -953 15 -34 25 -64 23 -66
-2 -2 -166 -40 -364 -85 -1298 -297 -2102 -549 -2784 -872 -68 -33 -128 -56
-132 -52 -35 38 -239 457 -366 752 -195 454 -304 905 -358 1476 -17 180 -37
698 -28 750 5 31 14 39 97 86 423 240 772 585 1170 1157 521 747 912 1545
1217 2479 138 426 236 885 268 1268 60 713 -27 1155 -300 1518 -205 273 -485
457 -794 522 -96 20 -320 24 -415 6 -180 -33 -364 -111 -535 -226 -120 -81
-141 -99 -319 -274 -199 -196 -343 -370 -465 -564 -643 -1020 -1109 -2477
-1255 -3922 -45 -441 -51 -572 -51 -1080 0 -497 5 -608 41 -915 51 -429 133
-815 251 -1175 172 -526 329 -905 567 -1370 163 -318 407 -732 512 -871 29
-37 35 -31 -121 -134 -243 -161 -413 -299 -614 -495 -180 -176 -254 -270 -321
-409 -72 -148 -101 -257 -107 -397 -8 -182 21 -274 114 -366 100 -98 240 -146
428 -147 142 0 213 16 327 76 79 41 123 82 221 208 82 105 357 320 648 508
1183 761 2432 1320 3734 1672 82 22 155 40 161 40 7 0 29 -28 50 -63 271 -448
683 -966 979 -1226 173 -153 388 -306 527 -377 222 -113 525 -143 773 -79 161
42 302 122 424 239 210 203 301 448 353 951 22 217 16 953 -11 1320 -27 371
-61 958 -55 966 9 15 385 46 829 69 575 30 1215 -14 1765 -121 928 -181 1868
-451 2326 -669 139 -66 210 -111 323 -209 161 -139 270 -182 391 -156 74 16
148 84 176 162 18 52 17 138 -2 204 -53 180 -328 431 -674 616 -334 178 -1307
512 -2035 698 -531 136 -1165 257 -1530 291 -92 9 -104 16 -68 39 159 102 594
428 798 599 758 633 1277 1256 1591 1912 249 519 367 1019 367 1559 1 537
-114 978 -399 1541 -195 384 -440 719 -759 1039 -576 578 -1247 969 -1920
1120 -245 55 -359 67 -665 70 -157 2 -303 1 -325 -1z m632 -879 c272 -36 491
-102 738 -225 267 -132 475 -282 709 -509 141 -138 220 -229 318 -366 416
-581 537 -1267 352 -1998 -92 -365 -275 -763 -515 -1119 -344 -513 -877 -1087
-1459 -1574 -276 -230 -544 -432 -880 -662 l-195 -133 -7 28 c-11 40 -55 764
-68 1098 -5 154 -15 381 -21 505 -6 124 -14 549 -18 945 -7 698 -8 722 -30
800 -66 244 -216 423 -445 535 -255 125 -510 136 -675 31 -151 -97 -224 -241
-266 -520 -50 -343 -86 -1516 -57 -1911 6 -96 17 -290 22 -430 17 -427 61
-938 126 -1450 18 -151 34 -298 34 -327 0 -48 -3 -55 -37 -85 -121 -106 -166
-184 -166 -288 1 -82 24 -145 92 -242 38 -56 64 -82 100 -102 67 -36 117 -94
136 -158 15 -52 55 -283 55 -324 0 -21 -3 -21 -172 -16 -277 7 -605 -21 -1021
-89 -104 -17 -190 -29 -192 -27 -1 2 -36 71 -77 153 -312 626 -547 1323 -672
1991 -155 833 -183 1641 -80 2344 146 1001 553 1930 1172 2680 116 140 392
418 522 525 599 495 1322 822 2025 915 172 23 493 25 652 5z m-6540 -877 c19
-37 61 -342 74 -531 26 -368 -28 -804 -167 -1357 -123 -491 -271 -916 -486
-1390 -244 -539 -612 -1157 -890 -1494 -71 -86 -270 -298 -275 -293 -8 8 36
473 73 777 62 506 172 1093 310 1645 233 934 590 1789 959 2302 75 104 277
317 335 352 41 25 51 23 67 -11z m4521 -8580 c67 -498 96 -817 90 -1006 l-3
-114 -90 59 c-200 132 -397 307 -596 529 -181 203 -449 547 -436 560 8 8 447
92 567 108 166 22 172 23 316 24 l130 2 22 -162z"/>
</g>
</svg>
